<?xml version="1.0" encoding="utf-8"?>
<!-- Generator: Adobe Illustrator 19.0.0, SVG Export Plug-In . SVG Version: 6.00 Build 0)  -->
<svg version="1.1" id="Capa_1" xmlns="http://www.w3.org/2000/svg" xmlns:xlink="http://www.w3.org/1999/xlink" x="0px" y="0px"
	 viewBox="-190 348.5 229 97.5" style="enable-background:new -190 348.5 229 97.5;" xml:space="preserve">
<style type="text/css">
	.st0{fill:#20294D;}
	.st1{fill:#FFFFFF;}
</style>
<g>
	<g>
		<path class="st0" d="M-132.4,367.1L-132.4,367.1C-132.4,367.1-132.4,367.1-132.4,367.1z"/>
		<g>
			<path class="st1" d="M9.9,427.3c-0.3-0.9-0.7-1.8-1-2.7c-0.4-0.8-0.9-2.3-1.1-3.2c-0.7-3-1.1-6.1-1.4-9.3
				c-0.3-3.2-0.5-6.5-0.6-9.8c-0.1-3.3-0.2-6.6-0.2-9.9c0-3.3-0.1-6.5-0.3-9.5c-0.1-1.9-0.2-3.4-0.3-4.7c-0.1-1.2-0.2-2.4-0.3-3.4
				c-0.1-1-0.3-2.1-0.5-3.3c-0.2-1.1-0.5-2.6-0.9-4.2c-0.3-1.1-1.3-2.2-2.3-3c-2.7-2-5.7,0.8-5.7,0.8c-0.6,0.6-0.9,1-1.4,1.9
				c-0.5,0.9-0.9,1.9-1.2,2.9c-0.4,1-0.7,2-0.9,3c-0.2,1-0.4,1.8-0.6,2.4c-0.9,4.3-1.6,8.6-2.1,12.9c-0.4,3.6-0.9,7.2-1.6,10.8
				c0,0-0.3-2.5-0.4-3.5c-0.1-1.6-0.3-3.2-0.4-4.9c-0.2-1.7-0.3-3.5-0.6-5.3c-0.2-1.8-0.5-3.5-0.8-5.1c-0.3-1.6-0.7-3.1-1.2-4.5
				c-0.5-1.3-1.1-2.5-1.7-3.3c-0.3-0.4-1-1.3-2.3-1.6c-2-0.4-3.2,0.7-3.6,1c-0.7,0.6-1.2,1.4-1.5,2.3c-0.3,0.8-0.5,1.7-0.7,2.5
				l-0.1,0.2c-0.1-0.4-0.2-0.8-0.3-1.3c-0.3-1-0.6-1.9-1.1-2.8c-0.4-0.9-1-1.7-1.6-2.4c-1.1-1.4-1.6-1.5-2.3-1.6c-0.1,0-0.2,0-0.3,0
				c-0.6,0-1.3,0.2-1.7,1.3c0,0-0.4,1.3,0.4,2.2c0.1,0.1,0.1,0.1,0.2,0.2c0,0,0,0,0,0c0.1,0,0.1,0.1,0.2,0.1c0,0,0,0,0,0
				c0.1,0,0.2,0,0.2,0.1c0,0,0,0,0,0c0.1,0,0.2,0,0.3,0h0c0,0,0.1,0,0.1,0c2.1,2.3,2.4,3.7,2.7,5.1c0.7,3.6,0.7,7.4,0.4,11.2
				c-0.2,3.8-0.8,7.5-1.7,11.1c-0.2,0.6-0.5,1.3-0.9,2.3c-0.5,1-0.9,2-1.2,3c-0.3,1-0.4,2-0.3,2.9c0.1,1,0.8,1.7,2,2
				c0.1,0,0.2,0,0.2,0.1c0,0,0,0,0.1,0c0.1,0,0.1,0,0.1,0c0,0,0,0,0.1,0c0.1,0,0.1,0,0.1,0l0,0h0c0.1,0,0.1,0,0.1,0
				c1.7-0.1,2.5-2.4,3-4c0.5-1.5,0.8-3.2,1-4.9c0.2-1.7,0.4-3.5,0.4-5.1c0.1-1.7,0.1-3.1,0.3-4.2c0.2-1.4,0.4-2.9,0.5-4.4
				c0.1-1.4,0.3-2.9,0.6-4.3c0.1-0.5,0.2-1.2,0.3-2.1c0.1-0.9,0.3-1.9,0.6-2.8c0.3-1,0.6-1.9,1-2.8c0.1-0.2,0.2-0.4,0.3-0.7
				c0,0,0,0,0,0c0,0,0-0.1,0-0.1c0,0,0,0,0,0c0,0,0-0.1,0-0.1c0,0,0,0,0,0c0,0,0,0,0-0.1c0,0,0,0,0-0.1c0,0,0,0,0-0.1c0,0,0,0,0-0.1
				c0,0,0,0,0,0c0,0,0,0,0-0.1c0,0,0,0,0,0c0,0,0,0,0,0c0,0,0,0,0,0c0,0,0,0,0,0c0,0,0,0,0,0c0,0,0,0,0,0c0,0,0,0,0,0c0,0,0,0,0,0
				c0,0,0,0,0,0c0,0,0,0,0.1,0c0,0,0,0,0,0c0,0,0,0,0,0c0,0,0,0,0,0c0.6,0,0.9,1,1.2,1.7c0.4,0.8,0.7,1.8,1,2.7
				c0.3,1,0.5,1.9,0.6,2.8c0.2,0.9,0.3,1.7,0.4,2.3c0.1,0.6,0.2,1.5,0.4,2.7c0.1,1.2,0.2,2.5,0.4,4c0.1,1.5,0.3,3,0.4,4.6
				c0.2,1.6,0.3,3.2,0.5,4.6c0.2,1.5,0.4,2.8,0.7,4c0.2,1.2,0.5,2.1,0.8,2.7c0.3,0.6,0.9,0.8,1.5,0.8h0.1c0.6,0,1.1-0.4,1.5-1.1
				c1.1-2.3,2-4.7,2.5-7.2c0.6-2.5,1-5,1.4-7.6c0.3-2.5,0.6-5.1,0.9-7.7c0.3-2.5,0.7-5.1,1.2-7.5c0.1-0.6,0.3-1.3,0.4-2.1
				c0.2-0.8,0.4-1.6,0.7-2.4c0.3-0.8,0.6-1.6,0.9-2.3c0.3-0.7,0.7-1.4,1.3-1.9c0.1-0.1,0.2-0.1,0.2-0.2c0,0,0,0,0.1,0
				c0.1,0,0.1-0.1,0.2-0.1c0,0,0,0,0.1,0c0.1,0,0.1,0,0.2-0.1c0,0,0,0,0,0c0.1,0,0.1,0,0.2,0l0,0c0,0,0,0,0,0c0.1,0,0.1,0,0.1,0
				c0,0,0,0,0,0c0.1,0,0.1,0,0.2,0c0,0,0,0,0,0c0,0,0.1,0,0.1,0c0,0,0,0,0,0c0,0,0.1,0,0.1,0.1c0,0,0,0,0,0c0,0,0.1,0.1,0.1,0.1l0,0
				c0,0,0.1,0,0.1,0.1c0,0,0,0,0,0c0,0,0,0,0.1,0.1c0,0,0,0,0,0c0,0,0,0,0,0.1c0.1,0.2,0.3,0.6,0.4,0.9c0.3,1,0.6,2.1,0.8,3.4
				c0.2,1.3,0.4,2.7,0.5,4c0.1,1.3,0.2,2.7,0.3,3.9c0.1,1.3,0.1,2.4,0.2,3.3c0.2,3.3,0.3,6.6,0.4,9.8c0.1,3.3,0.2,6.6,0.4,9.8
				c0.1,3.2,0.3,6.5,0.6,9.8c0.3,3.2,0.9,7.1,1.3,10.4c0.2,1,0.5,2.5,0.9,3.4c0.4,1,0.8,1.8,1.2,2.5c0.2,0.4,0.6,0.6,1,0.7
				c0.2,0,0.3,0.1,0.4,0.1c0.2,0,0.4,0,0.6-0.1c0.3-0.2,0.6-0.4,0.8-0.8C9.9,428.2,10,427.8,9.9,427.3
				C9.9,427.3,9.9,427.3,9.9,427.3z"/>
			<path class="st1" d="M-55.4,396.4c-0.1,0-0.1,0-0.2,0c0,0-0.1,0-0.1,0c0,0-0.1,0-0.2,0c0,0-0.1,0-0.1,0c-0.1,0-0.1,0-0.2,0.1
				c0,0-0.1,0-0.1,0c-0.1,0-0.2,0.1-0.2,0.1c-0.4,0.2-0.6,0.6-0.8,1l0,0.1c-0.1,0.6-0.2,1.2-0.3,1.9c-0.1,0.7-0.2,1.4-0.4,2
				c-0.1,0.6-0.3,1.3-0.6,1.9c-0.2,0.5-0.4,0.9-0.7,1.2c-0.7-0.6-1.2-1.4-1.5-2.3c-0.4-1-0.8-2.1-1.1-3.3c-0.3-1.1-0.5-2.3-0.7-3.5
				c-0.2-1.2-0.4-2.5-0.7-3.3c-0.3-0.7-0.8-1-1.4-1.1c-0.1,0-0.1,0-0.2,0c0,0-0.1,0-0.1,0c0,0-0.1,0-0.1,0c0,0-0.1,0-0.1,0
				c0,0-0.1,0-0.1,0c0,0-0.1,0-0.1,0c0,0-0.1,0-0.1,0c0,0-0.1,0-0.1,0c0,0-0.1,0-0.1,0.1c0,0,0,0-0.1,0c0,0-0.1,0.1-0.1,0.1
				c0,0,0,0-0.1,0.1c0,0-0.1,0.1-0.1,0.1c0,0,0,0,0,0.1c0,0.1-0.1,0.1-0.1,0.2c-0.4,0.7-0.8,2-1,3.1c-0.2,1-0.4,2-0.5,3.1
				c-0.1,1-0.3,2.1-0.4,3.1c-0.1,1-0.2,2-0.4,3c0,0.2-0.1,0.6-0.2,1.2c-0.1,0.5-0.2,1.1-0.4,1.7c-0.2,0.6-0.4,1.1-0.6,1.6
				c-0.2,0.3-0.4,0.6-0.6,0.7c-0.4-0.3-0.7-0.8-1-1.4c-0.3-0.7-0.6-1.5-0.8-2.3c-0.2-0.8-0.4-1.7-0.5-2.5c-0.1-0.8-0.2-1.5-0.4-2.1
				c-0.2-1.4-0.5-3-0.9-4.9c-0.3-1.8-0.8-3.7-1.3-5.4c-0.6-1.8-1.2-3.5-2.2-5.1c-0.8-1.3-3.1-3.5-5.3-4.3c-0.6-0.2-1.3-0.3-1.4-0.3
				c-0.1,0-0.2,0-0.3,0c0,0-0.1,0-0.1,0c0,0,0,0,0,0c-0.1,0-0.1,0,0,0c-0.1,0-0.1,0-0.2,0c0,0-0.1,0-0.1,0c-0.1,0-0.1,0-0.2,0.1
				c0,0-0.1,0-0.1,0c-0.1,0-0.2,0.1-0.2,0.1c-0.3,0.2-0.6,0.5-0.7,0.8c-0.1,0.3-0.1,0.7,0,1.1c0.1,0.4,0.6,0.8,0.9,1
				c1.2,0.8,3.4,1.4,5.2,4.1c0.6,0.9,0.9,2,1.2,2.8c0.3,0.9,0.6,1.9,0.9,3c0.2,0.8,0.5,1.7,0.7,2.7c0.2,1.1,0.4,2,0.6,2.8
				c0.3,1.7,0.6,3.4,0.9,5.3c0.3,1.9,0.9,3.6,1.8,5.2c0.7,1.1,1.4,1.8,2.1,2.1c0.5,0.2,0.9,0.3,1.4,0.3c0.3,0,0.6,0,0.8-0.1
				c0.7-0.2,1.3-0.7,1.9-1.4c0.6-0.7,1-1.6,1.4-2.6c0.2-0.7,0.4-1.4,0.5-2.1c0.2-0.7,0.3-1.4,0.4-2c0.2-1,0.3-2,0.4-3.1
				c0-0.5,0.1-0.9,0.1-1.4c0.2,0.8,0.4,1.5,0.7,2.2c0.4,1.3,1.1,2.6,1.9,3.9c0.6,1.1,1.3,1.7,2,1.9c0.1,0,0.2,0,0.3,0.1
				c0,0,0.1,0,0.1,0c0.1,0,0.1,0,0.2,0c0,0,0.1,0,0.1,0c0.1,0,0.2,0,0.3,0c0,0,0,0,0,0c0.1,0,0.2,0,0.3-0.1c0,0,0,0,0.1,0
				c0.1,0,0.2-0.1,0.2-0.1c0,0,0.1,0,0.1,0c0.1,0,0.2-0.1,0.3-0.2c0.6-0.4,1.2-0.9,1.6-1.6c0.5-0.7,0.8-1.4,1.1-2.1
				c0.2-0.4,0.9-3.8,1-4.4c0.1-0.5,0.2-1.4,0.2-1.9c0-0.5-0.2-0.9-0.5-1.2C-54.7,396.6-55,396.4-55.4,396.4z"/>
			<path class="st1" d="M-92.1,394.1c-1.8-1.3-4.2-2.4-7.2-2.7c-5.9-0.7-9.7,2.3-11,4.5c-0.9,1.5-1.3,3.2-1.5,5
				c-0.1,1.8,0.2,3.5,0.8,5.1c0.7,1.6,1.7,3,3.2,4.2c1.4,1.2,3.3,2,5.5,2.3c0.9,0.1,1.8,0.2,2.6,0.2c1.7,0,3.3-0.3,4.7-0.8
				c2.1-0.7,3.4-1.6,4.7-3c1.2-1.4,2-3,2.3-4.8c0.3-1.8,0.1-3.6-0.7-5.3C-89.2,397.1-90.2,395.4-92.1,394.1z"/>
			<path class="st1" d="M-105.3,387.7c0.5,0.4,1.2,0.7,2,0.8c0.3,0,0.7,0.1,1,0.1c0.6,0,1.2-0.1,1.7-0.3c0.8-0.3,1.4-0.7,1.9-1.2
				c0.5-0.5,0.7-1.1,0.9-1.8c0.1-0.7,0-1.3-0.2-1.9c-0.3-0.6-0.8-1.2-1.5-1.7c-0.7-0.5-1.5-0.9-2.6-1c-2.2-0.3-3.6,0.9-4.1,1.7
				c-0.3,0.5-0.5,1.2-0.5,1.8c0,0.7,0.1,1.3,0.3,1.9C-106.3,386.8-105.9,387.3-105.3,387.7z"/>
			<path class="st1" d="M-88.1,385.1c-0.5-0.6-1.2-1.3-2.2-1.7c-2-0.9-3.7-0.2-4.4,0.4c-0.5,0.4-0.8,1-1.1,1.6
				c-0.2,0.6-0.3,1.3-0.3,1.9c0.1,0.6,0.3,1.3,0.7,1.8c0.4,0.6,0.9,1.1,1.7,1.4c0.3,0.1,0.6,0.3,0.9,0.4c0.6,0.2,1.2,0.3,1.8,0.3
				c0.8,0,1.5-0.2,2.1-0.6c0.6-0.4,1-0.8,1.3-1.4c0.3-0.6,0.4-1.2,0.3-1.9C-87.3,386.5-87.6,385.8-88.1,385.1z"/>
			<path class="st1" d="M-136.6,394.1c-1.8-1.3-4.2-2.4-7.2-2.7c-5.9-0.7-9.7,2.3-11,4.5c-0.9,1.5-1.3,3.2-1.5,5
				c-0.1,1.8,0.2,3.5,0.8,5.1c0.7,1.6,1.7,3,3.2,4.2c1.4,1.2,3.3,2,5.5,2.3c0.9,0.1,1.8,0.2,2.6,0.2c1.7,0,3.3-0.3,4.7-0.8
				c2.1-0.7,3.8-1.8,5-3.2c1.2-1.4,2-3,2.3-4.8c0.3-1.8,0.1-3.6-0.7-5.3C-133.4,397-134.7,395.4-136.6,394.1z M-135.1,402.8
				c-0.1,1.2-0.5,2.4-1.4,3.3c-0.9,1-2.1,1.8-3.8,2.4c-0.3,0.1-0.5,0.2-0.8,0.2c-0.1,0-0.2,0-0.2,0.1c-0.2,0-0.4,0.1-0.7,0.1
				c-0.1,0-0.2,0-0.2,0c-0.3,0-0.6,0.1-0.9,0.1c0,0-0.1,0-0.1,0c-0.3,0-0.6,0-0.8,0c-0.1,0-0.1,0-0.1,0c-0.1,0-0.1,0-0.2,0
				c-0.2,0-0.5,0-0.7,0c-0.1,0-0.2,0-0.3,0c-0.3,0-0.7,0-1-0.1c-1.5-0.2-2.7-0.7-3.6-1.4c-1-0.7-1.7-1.6-2.2-2.6
				c-0.5-1-0.7-2.1-0.7-3.3c0-1.2,0.3-2.3,0.7-3.3c0.5-1,1-2,2.1-2.7c2.1-1.3,4-1.1,4.1-1.1c2.5,0.1,4.6,0.8,6.3,1.6
				c1.6,0.9,2.9,1.9,3.6,3C-135.4,400.4-135,401.6-135.1,402.8z"/>
			<path class="st1" d="M-166.7,417.7c-1.3-3.4-2.3-7.1-2.9-10.8c-0.6-3.8-1.1-7.6-1.2-11.5c-0.2-3.7-0.3-7.3-0.3-10.7
				c0.2,0,0.5,0,0.7,0c0.1,0,0.1,0,0.2,0c0.1,0,0.3,0,0.4,0c0.1,0,0.1,0,0.2,0c0.2,0,0.4,0,0.5,0c2.3-0.1,4.6-0.4,6.9-0.8
				c2.2-0.4,4.5-0.6,6.8-0.7c0.6,0,1-0.2,1.3-0.6c0.3-0.3,0.4-0.7,0.4-1.1c0-0.4-0.1-0.8-0.4-1.1c-0.3-0.3-0.7-0.6-1.2-0.6
				c0,0,0,0-0.1,0c-2.3,0-4.6,0.3-6.8,0.7c-2.2,0.4-4.5,0.6-6.8,0.8c-0.3,0-0.7,0-1,0c0,0-0.1,0-0.1,0c-0.2,0-0.5,0-0.7,0
				c0.1-1.4,0.2-2.8,0.3-4.3c0.2-1.7,0.4-3.3,0.6-5c0.3-1.6,0.6-3.2,1.1-4.8c0.4-1.5,1-3,1.7-4.3c0.9-1.8,2.1-3.1,3.5-3.9
				c1.4-0.8,3-1.3,4.7-1.5c0.2,0,0.4,0,0.7,0c0.1,0,0.1,0,0.2,0c0.2,0,0.3,0,0.4,0c0,0,0,0,0,0c0,0,0.1,0,0.1,0c0.2,0,0.5,0,0.8,0
				c0.1,0,0.2,0,0.2,0c0.3,0,0.6,0,0.9,0.1c0,0,0.1,0,0.1,0c0.3,0,0.5,0.1,0.8,0.1c0.1,0,0.2,0,0.2,0c0.3,0.1,0.6,0.1,0.9,0.2
				c1.9,0.4,3.8,1,5.6,1.7c1.8,0.7,3.5,1.5,5.1,2.5c1.6,0.9,5,3.3,5.4,3.4c0.3,0.1,0.7,0.2,1.1,0.2c0.1,0,0.2-0.1,0.3-0.1
				c0.3-0.2,0.6-0.4,0.8-0.7c0.2-0.3,0.2-1.1,0.1-1.4c-0.8-1.5-2.9-2.3-4.8-3.5c-1.9-1.1-4.5-2.6-6.6-3.4c-2.1-0.9-4.3-1.5-6.5-2
				c-0.3-0.1-0.7-0.1-1-0.2c-0.1,0-0.2,0-0.3,0c-0.2,0-0.5-0.1-0.7-0.1c-0.1,0-0.2,0-0.3,0c-0.3,0-0.5,0-0.8-0.1c-0.1,0-0.1,0-0.2,0
				c-0.3,0-0.6,0-1,0c-0.1,0-0.1,0-0.2,0c-0.3,0-0.5,0-0.8,0c-0.1,0-0.2,0-0.3,0c-0.3,0-0.7,0-1,0.1c-2.1,0.2-4.1,0.9-5.9,2
				c-1.8,1.1-3.3,2.8-4.5,5c-0.7,1.3-1.3,2.8-1.8,4.5c-0.5,1.7-0.9,3.5-1.3,5.3c-0.3,1.8-0.6,3.6-0.8,5.4c-0.2,1.7-0.3,3.2-0.3,4.7
				c-0.8-0.1-1.7-0.1-2.5-0.2c-0.3,0-0.5,0-0.8,0c-0.1,0-0.2,0-0.2,0c0,0,0,0-0.1,0c-0.1,0-0.2,0-0.2,0c0,0-0.1,0-0.1,0
				c-0.1,0-0.1,0-0.2,0c0,0-0.1,0-0.1,0c-0.1,0-0.1,0-0.2,0c-0.1,0-0.2,0-0.3,0c0,0,0,0-0.1,0c-0.1,0-0.1,0-0.2,0c0,0,0,0-0.1,0
				c-0.1,0-0.1,0-0.1,0c0,0,0,0-0.1,0c-0.1,0-0.1,0-0.2,0c0,0,0,0,0,0c-0.1,0-0.1,0-0.2,0.1c0,0,0,0-0.1,0c0,0-0.1,0-0.1,0.1
				c0,0,0,0-0.1,0c0,0-0.1,0-0.1,0.1c0,0,0,0-0.1,0c-0.1,0-0.1,0.1-0.2,0.1c-0.5,0.4-0.6,0.8-0.6,1.1c0,0.4,0.1,0.7,0.3,1
				c0.2,0.3,0.6,0.6,1.1,0.7c0,0,0.1,0,0.1,0c0.9,0.1,1.8,0.1,2.8,0.1c0.8,0,1.7,0.1,2.5,0.2c0.2,4.2,0.4,8.2,0.6,11.9
				c0.2,3.8,0.6,7.5,1.2,11c0.6,3.5,1.6,7.1,2.9,10.6c1.3,3.4,2.8,6.9,5.6,10.8c0.3,0.4,1,0.6,1.4,0.6c0,0,0.1,0,0.1,0
				c0.4,0,0.7-0.1,1-0.4c0.3-0.2,0.5-0.5,0.5-0.9c0.1-0.4-0.1-1-0.3-1.3C-163.1,423.8-165.4,421.1-166.7,417.7z"/>
			<path class="st1" d="M-119.5,399.6c-0.2-3.7-0.3-7.4-0.3-11.2c0-3.7,0.1-7.5,0.3-11.2c0.1-3.7,0.2-7.4,0.2-10.9l0-0.1
				c-0.1-0.6-0.3-1-0.7-1.3c-0.1-0.1-0.2-0.1-0.3-0.2c0,0-0.1,0-0.1,0c-0.1,0-0.1,0-0.2-0.1c0,0-0.1,0-0.1,0c-0.1,0-0.1,0-0.2,0
				c0,0-0.1,0-0.1,0c0,0,0,0-0.1,0c-0.1,0-0.1,0-0.2,0c-0.4,0-0.8,0.2-1.1,0.6c-0.3,0.3-0.5,0.8-0.5,1.4c0,3.5-0.1,7.2-0.2,10.9
				c-0.1,3.7-0.2,7.5-0.2,11.3c0,3.8,0.1,7.6,0.3,11.3c0.2,3.8,0.7,7.5,1.4,11c0.1,0.5,0.4,0.9,0.9,1.1c0.3,0.1,0.6,0.2,0.8,0.2
				c0.1,0,0.2,0,0.3,0c0.4-0.1,0.7-0.3,1-0.7c0.3-0.4,0.4-0.9,0.2-1.4C-118.8,406.9-119.3,403.3-119.5,399.6z"/>
			<path class="st1" d="M-125.8,399.6c-0.2-3.7-0.3-7.4-0.3-11.2c0-3.7,0.1-7.5,0.3-11.2c0.1-3.7,0.2-7.4,0.2-10.9l0-0.1
				c-0.1-0.6-0.3-1-0.7-1.3c-0.1-0.1-0.2-0.1-0.3-0.2c0,0-0.1,0-0.1,0c-0.1,0-0.1-0.1-0.2-0.1c0,0-0.1,0-0.1,0c-0.1,0-0.1,0-0.2,0
				c0,0-0.1,0-0.1,0c0,0,0,0-0.1,0c-0.1,0-0.1,0-0.2,0c-0.4,0-0.8,0.2-1.1,0.6c-0.3,0.3-0.5,0.8-0.5,1.4c0,3.5-0.1,7.2-0.2,10.9
				c-0.1,3.7-0.2,7.5-0.2,11.3c0,3.8,0.1,7.6,0.3,11.3c0.2,3.8,0.7,7.5,1.4,11c0.1,0.5,0.4,0.9,0.9,1.1c0.3,0.1,0.6,0.2,0.8,0.2
				c0.1,0,0.2,0,0.3,0c0.4-0.1,0.7-0.3,1-0.7c0.3-0.4,0.3-0.9,0.2-1.4C-125.2,406.9-125.6,403.3-125.8,399.6z"/>
			<path class="st1" d="M-110.3,392.1c0.8-0.4,1.3-0.8,1.7-1.4c0.4-0.6,0.6-1.2,0.7-1.8c0.1-0.6,0-1.3-0.3-1.9
				c-0.2-0.6-0.6-1.2-1.1-1.6c-0.7-0.6-2.4-1.3-4.4-0.4c-1,0.4-1.7,1.1-2.2,1.7c-0.5,0.7-0.8,1.3-0.9,2c-0.1,0.7,0,1.3,0.3,1.9
				c0.3,0.6,0.8,1.1,1.4,1.4c0.6,0.4,1.3,0.6,2.1,0.6c0.5,0,1.1-0.1,1.7-0.3C-110.9,392.4-110.6,392.2-110.3,392.1z"/>
			<path class="st1" d="M30.1,407.8c0-0.4-0.2-0.7-0.4-1c-0.3-0.3-0.6-0.4-1-0.5c-0.1,0-0.1,0-0.2,0c0,0-0.1,0-0.1,0
				c-0.1,0-0.1,0-0.2,0c0,0-0.1,0-0.1,0c-0.1,0-0.1,0.1-0.2,0.1c0,0-0.1,0-0.1,0c-0.1,0-0.2,0.1-0.3,0.2c0,0-1.8,1.4-3,1.8
				c-1.2,0.4-2.5,0.6-3.9,0.6l-0.2,0c-1.3,0-2.5-0.2-3.7-0.5c-1.2-0.3-2.3-0.9-3.1-1.5c-0.8-0.7-1.3-1.5-1.5-2.5
				c-0.1-0.4-0.1-0.9,0-1.4c1.3,0.5,3.5,1.3,5.6,1.4c0.1,0,0.2,0,0.4,0c0.1,0,0.2,0,0.2,0c0.1,0,0.2,0,0.4,0c0.1,0,0.2,0,0.3,0
				c0.2,0,0.3,0,0.5,0c3-0.2,5.1-0.8,6.4-1.8c1.3-1,2-2.1,2-3.4c0-1.2-0.5-2.5-1.5-3.6c-1-1.1-2.2-2-3.7-2.6
				c-0.2-0.1-0.4-0.2-0.7-0.2c-0.1,0-0.1,0-0.2-0.1c-0.2,0-0.3-0.1-0.5-0.1c-0.1,0-0.1,0-0.2,0c-0.2,0-0.4-0.1-0.6-0.1
				c0,0-0.1,0-0.1,0c-0.2,0-0.5,0-0.7,0c-0.2,0-0.3,0-0.5,0c0,0-0.1,0-0.1,0c-0.2,0-0.3,0-0.5,0c-0.1,0-0.1,0-0.2,0
				c-0.2,0-0.4,0-0.6,0.1c-1.7,0.3-3.4,1.3-4.9,3c-0.7,0.8-1.3,1.4-1.7,1.9c-0.4,0.5-0.8,1-1,1.4c-0.3,0.5-0.5,1-0.7,1.6
				c-0.2,0.6-0.4,1.4-0.7,2.4c-0.4,1.6-0.3,3,0.3,4.2c0.6,1.2,1.6,2.2,2.8,3c1.2,0.8,2.7,1.3,4.4,1.7c1.3,0.3,2.7,0.4,4.1,0.4
				c0.3,0,0.6,0,1,0c1.7-0.1,3.3-0.4,4.8-0.9c1.5-0.5,3-1.2,3.8-2.4C30.1,408.8,30.2,408.2,30.1,407.8z M15.9,397.8
				c1.2-0.6,2.4-1,3.6-1c0.1,0,0.2,0,0.3,0c0,0,0,0,0,0c0.2,0,0.4,0,0.6,0c0,0,0.1,0,0.1,0c0.2,0,0.4,0,0.6,0.1c0,0,0.1,0,0.1,0
				c0.2,0,0.4,0.1,0.6,0.1c0,0,0,0,0.1,0c0.2,0.1,0.4,0.1,0.6,0.2c0.8,0.4,1.3,0.8,1.5,1.3c0.1,0.2,0.2,0.6-0.7,1.3
				c-0.7,0.5-2,1.2-4.1,1.2c0,0,0,0,0,0c-0.1,0-0.1,0-0.2,0c-0.1,0-0.2,0-0.2,0c-0.1,0-0.1,0-0.2,0c-0.1,0-0.2,0-0.2,0
				c-0.1,0-0.1,0-0.2,0c-0.1,0-0.2,0-0.2,0c-0.1,0-0.1,0-0.2,0c-0.1,0-0.2,0-0.2,0c-0.1,0-0.1,0-0.2,0c-0.1,0-0.2,0-0.2,0
				c-0.1,0-0.1,0-0.2,0c-0.1,0-0.1,0-0.2,0c-0.1,0-0.1,0-0.2,0c-0.1,0-0.1,0-0.2,0c-0.1,0-0.1,0-0.2,0c-0.1,0-0.1,0-0.2,0
				c-0.1,0-0.1,0-0.2-0.1c0,0-0.1,0-0.1,0c-0.1,0-0.2,0-0.2-0.1c0,0-0.1,0-0.1,0c-0.1,0-0.2-0.1-0.3-0.1c0,0,0,0-0.1,0
				c-0.1,0-0.2-0.1-0.3-0.1c0,0,0,0,0,0c-0.4-0.1-0.8-0.3-1.1-0.4C14.3,399,15,398.3,15.9,397.8z"/>
		</g>
	</g>
	<g>
		<path class="st1" d="M-46.5,424.5c0.9,0,1.7,0.4,2.4,1.3c0.7,0.8,1.1,1.7,1.1,2.6c0,1-0.4,1.7-1.1,2.3c-0.7,0.5-1.5,0.8-2.5,0.8
			c-0.6,0-1.1-0.1-1.4-0.3l0.3,2c0.1,0.7,0.2,1.3,0.1,1.7l0,0.3c0,0.1,0,0.2,0,0.3c0,0.4-0.2,0.6-0.6,0.6l-0.3,0
			c-0.1,0-0.2-0.1-0.3-0.2l-0.3-0.4l-0.5-2.5c-0.2-0.7-0.2-1.3-0.2-1.6l-0.1-2.9c0-1.1,0.4-2,1.2-2.7
			C-48.1,424.9-47.3,424.5-46.5,424.5z M-48.3,428.5c0,0.7,0.1,1.1,0.2,1.3c0,0.2,0.4,0.2,1.2,0.2c0.7,0,1.3-0.1,1.8-0.5
			c0.5-0.4,0.8-0.9,0.9-1.6c-0.3-0.6-0.6-1-0.9-1.2c-0.3-0.3-0.8-0.4-1.4-0.4c-0.6,0-1.1,0.1-1.4,0.4c-0.3,0.3-0.5,0.7-0.4,1.2
			L-48.3,428.5z"/>
		<path class="st1" d="M-36.9,430.8c-0.1,0.1-0.3,0.2-0.6,0.2c-0.2,0-0.5,0-1-0.1c-0.4-0.1-0.7-0.1-0.9-0.1c-0.7,0-1.2,0.3-1.5,0.9
			c-0.2,0.4-0.4,1-0.5,1.7c-0.1,0.8-0.1,1.2-0.2,1.2c-0.1,0.2-0.3,0.5-0.6,0.9h-0.4c-0.2-0.3-0.3-0.8-0.5-1.5
			c-0.2-0.7-0.2-1.3-0.2-1.6c0-0.3,0-0.5,0-0.5c0.1-0.1,0.2-0.2,0.4-0.2c0.1,0,0.2,0,0.3,0.1c0.1,0.1,0.1,0.1,0.2,0.1
			c0.5-1,1-1.6,1.4-1.9c0.4-0.3,0.9-0.4,1.7-0.4c0.3,0,0.8,0.1,1.3,0.3C-37.4,430-37,430.4-36.9,430.8z"/>
		<path class="st1" d="M-31.2,435.2c0,0.1-0.2,0.3-0.7,0.4c-0.4,0.1-0.6,0.2-0.7,0.2c-1,0-1.8-0.2-2.5-0.7c-0.8-0.6-1.2-1.4-1.2-2.4
			c0-0.7,0.3-1.4,0.8-2.2c0.6-0.9,1.4-1.4,2.2-1.4c0.5,0,0.9,0.2,1.2,0.5c0.3,0.3,0.5,0.7,0.5,1.2c0,0.5-0.2,1-0.6,1.5
			c-0.5,0.6-0.9,0.9-1.5,0.9c-0.1,0-0.1,0-0.2-0.1c0,0-0.1-0.1-0.1-0.1c-0.1,0-0.4,0.1-0.9,0.3c0.2,0.5,0.5,0.9,1.1,1.2
			c0.4,0.2,0.9,0.3,1.5,0.3c0.1,0,0.1,0,0.2,0c0.1,0,0.1,0,0.2,0c0.2,0,0.4,0.1,0.5,0.2C-31.3,435-31.2,435.1-31.2,435.2z M-33,431
			v-0.7c0,0-0.1,0-0.1,0c-0.1,0-0.1,0-0.2,0c-0.3,0-0.6,0.2-1,0.6c-0.3,0.4-0.5,0.6-0.6,0.9c0.2,0.2,0.4,0.2,0.6,0.2
			c0.1,0,0.3-0.1,0.7-0.3C-33.2,431.4-33,431.2-33,431z"/>
		<path class="st1" d="M-20.3,433.9c0,0.3-0.1,0.7-0.3,1.2c-0.2,0.6-0.4,0.9-0.7,0.9c-0.3,0-0.5-0.4-0.6-1.2l-0.2-2.1
			c-0.2-0.8-0.5-1.1-1-1.1c-0.4,0-0.8,0.4-1.2,1.2c-0.3,0.7-0.6,1.4-0.9,2.1c-0.3,0.7-0.7,1.1-1,1c-0.3-0.1-0.5-0.5-0.6-1.2
			c-0.1-0.7-0.2-1.4-0.3-2.1c-0.1-0.8-0.4-1.2-0.7-1.3c-0.4,0.4-0.9,1.2-1.4,2.2c-0.4,0.8-0.7,1.2-0.9,1.2c-0.2,0-0.4-0.2-0.6-0.5
			c-0.1-0.2-0.2-0.4-0.2-0.5c0-0.7,0.4-1.5,1.1-2.7c0.8-1.2,1.5-1.8,2.1-1.8c0.4,0,0.8,0.3,1.3,1c0.3,0.5,0.6,0.9,0.8,1.4
			c0.4-0.4,0.8-0.8,1.3-1.2c0.4-0.4,0.9-0.6,1.4-0.6c0.6,0,1.1,0.5,1.7,1.3C-20.5,431.9-20.3,432.9-20.3,433.9z"/>
		<path class="st1" d="M-17,435.8c0,0-0.2,0.1-0.3,0.1c-0.2,0-0.3,0-0.4,0.1c-0.6-0.3-0.9-0.6-1.1-1c0-0.1-0.1-0.5-0.1-1.3
			c0-0.6-0.1-0.9-0.1-0.8c0-0.2,0.1-0.8,0.3-1.9c0.1,0,0.3-0.2,0.7-0.4c0.4,0.4,0.6,0.7,0.7,1l-0.2,1.6c-0.1,0.2-0.1,0.5-0.1,0.7
			c0,0.3,0.1,0.6,0.3,0.9c0.2,0.3,0.3,0.5,0.3,0.8C-16.9,435.5-16.9,435.7-17,435.8z M-16.4,426.6c0,0.3,0,0.4-0.2,0.5
			c-0.1,0-0.2,0-0.4,0.1c-0.3,0-0.6-0.1-0.8-0.4c-0.1-0.2-0.2-0.4-0.2-0.6c0-0.3,0-0.4,0-0.4c0-0.3,0.3-0.5,0.8-0.6
			c0.1,0,0.1,0,0.2,0c0.3,0,0.5,0.2,0.6,0.6C-16.4,426.1-16.4,426.4-16.4,426.6z"/>
		<path class="st1" d="M-9.3,432.1c0,0.8-0.3,1.6-1,2.3c-0.7,0.7-1.6,1.2-2.6,1.2c-0.9,0.1-1.6-0.2-2.2-0.9
			c-0.4-0.6-0.7-1.3-0.7-2.1c0-0.6,0.1-1.2,0.3-1.8c0.2-0.6,0.5-0.9,0.9-0.9c0.1,0,0.1,0,0.2,0c0.1,0.1,0.2,0.1,0.3,0.2
			c0.1,0.1,0.2,0.3,0.1,0.5c0,0.1-0.1,0.4-0.3,0.8c-0.2,0.5-0.2,0.8-0.2,0.9c0,0.3,0.1,0.7,0.4,1c0.3,0.4,0.5,0.6,0.8,0.6
			c0.8,0,1.3-0.1,1.6-0.4c0.1-0.1,0.3-0.5,0.5-1.2c0-0.9,0-1.4,0.1-1.6c0-0.4,0.1-0.6,0.2-0.6c0.1,0,0.2,0,0.3,0
			c0.5,0,0.9,0.3,1.1,0.9C-9.3,431.1-9.3,431.6-9.3,432.1z"/>
		<path class="st1" d="M1.8,433.9c0,0.3-0.1,0.7-0.3,1.2c-0.2,0.6-0.4,0.9-0.7,0.9c-0.3,0-0.5-0.4-0.6-1.2L0,432.7
			c-0.2-0.8-0.5-1.1-1-1.1c-0.4,0-0.8,0.4-1.2,1.2c-0.3,0.7-0.6,1.4-0.9,2.1c-0.3,0.7-0.7,1.1-1,1c-0.3-0.1-0.5-0.5-0.6-1.2
			c-0.1-0.7-0.2-1.4-0.3-2.1c-0.1-0.8-0.4-1.2-0.7-1.3c-0.4,0.4-0.9,1.2-1.4,2.2c-0.4,0.8-0.7,1.2-0.9,1.2c-0.2,0-0.4-0.2-0.6-0.5
			c-0.1-0.2-0.2-0.4-0.2-0.5c0-0.7,0.4-1.5,1.1-2.7c0.8-1.2,1.5-1.8,2.1-1.8c0.4,0,0.8,0.3,1.3,1c0.3,0.5,0.6,0.9,0.8,1.4
			c0.4-0.4,0.8-0.8,1.3-1.2c0.4-0.4,0.9-0.6,1.4-0.6c0.6,0,1.1,0.5,1.7,1.3C1.5,431.9,1.8,432.9,1.8,433.9z"/>
		<path class="st1" d="M-116,424.6c1.1,0,1.7,0.3,1.7,0.9l-0.4,0.8c-0.9,0.3-1.8,0.6-2.8,0.7c-0.5,0.1-0.9,0.3-1.1,0.7
			c-0.1,0.3-0.2,0.7-0.2,1.3c0,1.5,0.1,2,0.1,1.4c2-0.6,3.3-0.8,3.9-0.9c0.5,0,0.7,0.2,0.7,0.5c0,0.2-0.1,0.5-0.2,0.9
			c-0.9,0.2-1.8,0.5-2.7,0.7c-1.3,0.4-2,0.8-2,1.2c0,0.6,0.1,1,0.3,1.4c0.2,0.4,0.6,0.7,1.1,0.7c0.5,0,1.1-0.1,2-0.2
			c0.9-0.1,1.5-0.2,2-0.2c0.9,0,1.4,0.3,1.4,0.8l0.1,0.1c0,0,0,0.1,0,0.2c0,0.1,0,0.2-0.1,0.2c-0.1,0.1-0.3,0.2-0.7,0.3l-2.1,0.4
			c0,0-0.4,0-1.2,0.1c-0.2,0-0.4,0-0.7,0.1h-0.4c0,0-0.5,0-1.7-0.1c-0.5,0-0.8-0.1-1-0.2c-0.1,0-0.1-0.1-0.2-0.2
			c-0.1-0.1-0.1-0.1-0.2-0.2l-0.2-0.4v-2.2c0-0.7-0.1-1.1-0.3-1.1l-0.4,0.1c-0.1,0-0.3,0.1-0.5,0.1c-0.4,0-0.9-0.2-1.3-0.5v-1.1
			c0.2,0,0.3-0.1,0.3-0.3c0-0.2,0.6-0.2,1.9-0.2c0-0.2,0-0.7-0.1-1.7l-0.1-1.4c-0.1-0.9,0.3-1.6,0.9-2c0.4-0.3,1.2-0.5,2.3-0.6
			C-117.2,424.6-116.7,424.6-116,424.6z"/>
		<path class="st1" d="M-104.9,432.1c0,0.4-0.1,1.6-0.4,3.5c-0.3,2.2-0.5,3.5-0.7,3.8c-0.2,0.4-0.5,0.6-0.7,0.7
			c-0.2,0.1-0.4,0.1-0.8,0.1c-0.5,0-0.9-0.2-1.3-0.6c-0.4-0.4-0.6-0.8-0.6-1.2c0-0.2,0.1-0.4,0.2-0.5c0.1-0.1,0.3-0.2,0.5-0.2
			c0.1,0,0.3,0.2,0.6,0.5c0.3,0.3,0.5,0.5,0.6,0.5c0.4,0,0.7-0.5,0.9-1.4c0.1-0.5,0.1-1.1,0.1-1.7c0,0-0.3,0.1-0.6,0.2
			c-0.4,0.1-0.6,0.2-0.7,0.2c-0.1,0-0.2,0-0.3,0c-0.1,0-0.2,0-0.3,0c-0.8,0-1.4-0.4-2-1.2c-0.4-0.6-0.7-1.3-0.7-1.9
			c-0.1-0.7,0.2-1.5,0.9-2.3c0.7-0.8,1.4-1.2,2.1-1.2c0.1,0,0.4,0.1,0.7,0.2c0.3,0.2,0.6,0.3,0.7,0.5l-0.2,0.5
			c-0.1,0.1-0.3,0.1-0.5,0.1c-0.3,0-0.5,0.1-0.7,0.1c-0.1,0-0.1,0-0.2,0c-0.3,0-0.7,0.2-1,0.7c-0.4,0.5-0.5,0.9-0.5,1.4
			c0,0.6,0.2,1,0.6,1.3c0.3,0.3,0.7,0.4,1.2,0.4c0.5,0,0.9-0.3,1.2-0.9c0.2-0.4,0.4-1,0.5-1.7c0.1-0.5,0.1-0.8,0.1-0.9
			c0-0.2,0.1-0.3,0.3-0.4c0.2,0,0.4-0.1,0.6-0.1C-105,430.7-104.9,431.2-104.9,432.1z"/>
		<path class="st1" d="M-97,431c-0.1,0.1-0.3,0.2-0.6,0.2c-0.2,0-0.5,0-1-0.1c-0.4-0.1-0.7-0.1-0.9-0.1c-0.7,0-1.2,0.3-1.6,0.9
			c-0.2,0.4-0.4,1-0.5,1.7c-0.1,0.8-0.1,1.2-0.2,1.2c-0.1,0.2-0.3,0.5-0.6,0.9h-0.4c-0.2-0.3-0.3-0.8-0.5-1.5
			c-0.2-0.7-0.2-1.3-0.2-1.6c0-0.3,0-0.5,0-0.5c0.1-0.1,0.2-0.2,0.4-0.2c0.1,0,0.2,0,0.3,0.1c0.1,0.1,0.1,0.1,0.2,0.1
			c0.5-1,1-1.6,1.4-1.9c0.4-0.3,0.9-0.4,1.7-0.4c0.3,0,0.8,0.1,1.3,0.3C-97.5,430.3-97.1,430.6-97,431z"/>
		<path class="st1" d="M-91.3,435.4c0,0.1-0.2,0.3-0.7,0.4c-0.4,0.1-0.6,0.2-0.7,0.2c-1,0-1.8-0.2-2.5-0.7c-0.8-0.6-1.2-1.4-1.2-2.4
			c0-0.7,0.3-1.4,0.8-2.2c0.6-0.9,1.4-1.4,2.2-1.4c0.5,0,0.9,0.2,1.2,0.5c0.3,0.3,0.5,0.7,0.5,1.2c0,0.5-0.2,1-0.6,1.5
			c-0.5,0.6-0.9,0.9-1.5,0.9c-0.1,0-0.1,0-0.2-0.1c0,0-0.1-0.1-0.1-0.1c-0.1,0-0.4,0.1-0.9,0.3c0.2,0.5,0.5,0.9,1.1,1.2
			c0.4,0.2,0.9,0.3,1.5,0.3c0.1,0,0.1,0,0.2,0c0.1,0,0.1,0,0.2,0c0.2,0,0.4,0.1,0.5,0.2C-91.4,435.2-91.3,435.3-91.3,435.4z
			 M-93.1,431.2v-0.7c0,0-0.1,0-0.1,0c-0.1,0-0.1,0-0.2,0c-0.3,0-0.6,0.2-1,0.6c-0.3,0.4-0.5,0.6-0.6,0.9c0.2,0.2,0.4,0.2,0.6,0.2
			c0.1,0,0.3-0.1,0.7-0.3C-93.3,431.6-93.1,431.4-93.1,431.2z"/>
		<path class="st1" d="M-86.4,434c0,0.1,0,0.2,0,0.2c0,0.5-0.4,1.1-1.1,1.6c-0.7,0.5-1.3,0.7-1.8,0.7c-0.1,0-0.2,0-0.2,0
			c-0.2,0-0.3,0-0.5-0.1c-0.2,0-0.3-0.1-0.4-0.3c0-0.1,0-0.2,0.2-0.4c0.1-0.2,0.3-0.3,0.4-0.3c0,0,0,0,0,0s0,0,0,0c0,0,0.1,0,0.2,0
			c0.5,0,1.1-0.3,1.8-1c0,0,0-0.1,0-0.1c0-0.1-0.4-0.6-1.1-1.4c-0.7-0.8-1.1-1.5-1.1-1.9c0-0.4,0.2-0.8,0.5-1.2
			c0.4-0.4,0.8-0.6,1.3-0.6c0.3,0,0.6,0.1,0.8,0.4c0.2,0.2,0.2,0.4,0.2,0.7c0,0.2-0.2,0.3-0.4,0.3c-0.1,0-0.2,0-0.3,0
			c-0.2,0-0.3,0-0.4,0c-0.3,0-0.4,0.1-0.5,0.3c0,0.4,0.4,1,1.1,1.8C-86.8,433.4-86.4,433.9-86.4,434z"/>
		<path class="st1" d="M-78,435.5c0,0.2-0.1,0.4-0.2,0.6c-0.1,0.1-0.3,0.2-0.5,0.2c-0.4,0-0.8-0.1-1.1-0.3c-0.3-0.2-0.6-0.5-0.8-0.9
			c-0.2,0-0.4,0.1-0.6,0.3c-0.2,0.3-0.3,0.4-0.4,0.5c-0.3,0.1-0.8,0.2-1.4,0.2c-0.5,0-1-0.3-1.4-0.9c-0.4-0.5-0.6-1-0.6-1.5
			c0-0.9,0.4-1.7,1.3-2.4c0.8-0.7,1.6-1.1,2.5-1.1c0.2,0,0.4,0.1,0.6,0.2c0.2,0.2,0.3,0.3,0.3,0.6c0,0.1,0,0.3-0.1,0.4
			c0.6,0.2,0.9,0.6,0.9,1.1c0,0.1,0,0.2,0,0.4c0,0.2,0,0.3,0,0.4c0,0.1,0,0.2,0,0.2c0.1,0.3,0.4,0.8,1,1.3
			C-78.2,435.1-78,435.4-78,435.5z M-81.1,431.7c-0.1,0-0.2,0-0.4-0.1c-0.2,0-0.3-0.1-0.4-0.1c-0.3,0-0.7,0.2-1.2,0.7
			c-0.5,0.5-0.7,0.9-0.7,1.2c0,0.2,0.1,0.4,0.3,0.7c0.2,0.3,0.5,0.5,0.8,0.5c0.7,0,1.1-0.4,1.3-1.1C-81.3,433-81.2,432.3-81.1,431.7
			z"/>
		<path class="st1" d="M-70.4,433.3c-0.2,0-0.3,0.1-0.5,0.1c-0.3,0-0.5,0.1-0.6,0.3c-0.8,1.2-1.2,1.9-1.4,2.1
			c-0.4,0.4-1.1,0.6-1.9,0.6c-0.5,0-1.1-0.4-1.7-1.3c-0.6-0.8-0.9-1.5-0.9-2c0-1,0.3-1.8,0.9-2.5c0.6-0.6,1.4-1,2.3-1
			c0.1,0,0.3,0,0.6,0.1c0.3,0.1,0.5,0.1,0.6,0.1c0.2,0,0.4-0.5,0.5-1.4c0.1-1.4,0.2-2.3,0.3-2.6c0.2-0.9,0.6-1.4,1.1-1.4
			c0.2,0,0.3,0.1,0.4,0.4c0.1,0.2,0.1,0.4,0.1,0.6c0,0.3-0.1,0.8-0.4,1.6c-0.2,0.7-0.4,1.4-0.4,2.1c0,0.6,0.1,1.4,0.3,2.2
			C-70.9,432.3-70.7,432.9-70.4,433.3z M-72.3,432.3c0-0.3-0.1-0.7-0.3-1.1c-1.1,0.1-1.8,0.3-2.3,0.4c-0.7,0.3-1,0.7-1,1.3
			c0,0.3,0.2,0.7,0.5,1.2c0.4,0.6,0.8,0.9,1.2,0.9c0.3,0,0.7-0.3,1.2-0.9C-72.6,433.4-72.3,432.8-72.3,432.3z"/>
		<path class="st1" d="M-62,432.4c0,1.1-0.5,1.9-1.4,2.6c-0.8,0.6-1.7,0.9-2.6,0.9c-0.9,0-1.6-0.3-2.2-1c-0.6-0.7-0.9-1.4-0.9-2.2
			c0-0.8,0.4-1.6,1.1-2.4c0.8-0.8,1.6-1.2,2.6-1.2c0.9,0,1.7,0.4,2.4,1.1C-62.3,430.8-62,431.6-62,432.4z M-63.2,432.5
			c0-0.6-0.2-1.1-0.7-1.5c-0.4-0.3-0.9-0.5-1.4-0.5c0,0-0.2,0.2-0.6,0.6c-0.3,0.4-0.6,0.6-0.9,0.6c-0.1,0-0.2,0-0.3-0.1
			c-0.3,0.6-0.4,0.9-0.4,1.1c0,0.5,0.3,1,0.8,1.3c0.4,0.2,0.9,0.3,1.3,0.3c0.5,0,1-0.1,1.4-0.4C-63.5,433.5-63.2,433.1-63.2,432.5z"
			/>
		<path class="st1" d="M-57.3,434c0,0.1,0,0.2,0,0.2c0,0.5-0.4,1.1-1.1,1.6c-0.7,0.5-1.3,0.7-1.8,0.7c-0.1,0-0.2,0-0.2,0
			c-0.2,0-0.3,0-0.5-0.1c-0.2,0-0.3-0.1-0.4-0.3c0-0.1,0-0.2,0.2-0.4c0.1-0.2,0.3-0.3,0.4-0.3c0,0,0,0,0,0s0,0,0,0c0,0,0.1,0,0.2,0
			c0.5,0,1.1-0.3,1.8-1c0,0,0-0.1,0-0.1c0-0.1-0.4-0.6-1.1-1.4c-0.7-0.8-1.1-1.5-1.1-1.9c0-0.4,0.2-0.8,0.5-1.2
			c0.4-0.4,0.8-0.6,1.3-0.6c0.3,0,0.6,0.1,0.8,0.4c0.2,0.2,0.2,0.4,0.2,0.7c0,0.2-0.2,0.3-0.4,0.3c-0.1,0-0.2,0-0.3,0
			c-0.2,0-0.3,0-0.4,0c-0.3,0-0.4,0.1-0.5,0.3c0,0.4,0.4,1,1.1,1.8C-57.7,433.4-57.3,433.9-57.3,434z"/>
	</g>
</g>
</svg>
