<svg xmlns="http://www.w3.org/2000/svg" xmlns:xlink="http://www.w3.org/1999/xlink" version="1.1" id="Capa_1" x="0" y="0" width="282.96" height="43.18" viewBox="0 0 282.96 43.18" enable-background="new 0 0 282.955 43.182" xml:space="preserve"><path fill="#FFFFFF" d="M34.23 33.22c-0.23 0.13-0.58 0.22-1.05 0.26 -0.45 0-0.9-0.07-1.35-0.23l-1.09-0.56c-1.45-1.48-2.35-3.26-2.7-5.36l-1.05-6.19c-0.32-1.92-1.41-3.62-3.26-5.1 -0.45-0.12-1.39 1.43-2.81 4.65 -2.42 5.43-3.92 8.7-4.5 9.83 -0.75 1.45-1.68 2.19-2.78 2.21 -0.33 0-0.67-0.15-1.05-0.43 -0.37-0.28-0.72-0.74-1.05-1.37 -0.83-2.18-1.7-5.3-2.62-9.37 -0.95-4.2-1.78-7.25-2.48-9.15L5.43 9.63C5.4 9.36 5.34 9.02 5.24 8.62V8.1c0-0.57 0.17-1.15 0.53-1.72 0.08-0.1 0.26-0.3 0.56-0.6l1.31-1.01 0.64-0.11c1.35 0 2.26 1.66 2.74 4.99 0.02 0.25 0.17 1.8 0.45 4.65 0.28 2.92 0.47 4.75 0.6 5.47 0.5 2.73 1.24 4.1 2.21 4.13 0.28 0 0.57-0.09 0.9-0.26 0.62-1 1.55-2.87 2.78-5.62 1.1-2.45 2.14-4.33 3.11-5.62 1.2-1.62 2.29-2.6 3.27-2.92l1.8-0.6c0.9 0 1.69 0.93 2.36 2.77 0.47 1.28 1.33 4.13 2.55 8.55 1.07 3.8 1.79 5.92 2.14 6.34 0.28 0.25 0.54 0.43 0.79 0.53 1.08 0 2.09-2.72 3.04-8.18 0.78-4.5 1.16-7.89 1.16-10.16 0-1.5-0.12-2.46-0.37-2.89 0.45-1.57 1.34-2.36 2.66-2.36l1.24 0.19c0.63 0.1 1.09 0.48 1.39 1.12 0.12 0.35 0.26 0.96 0.41 1.84l-1.01 9.19 -2.59 8.44c-0.73 2.35-1.37 4.05-1.95 5.1C37.02 31.03 35.78 32.32 34.23 33.22M57.93 31.13c0 0.35-0.58 0.7-1.72 1.05 -0.93 0.27-1.56 0.41-1.91 0.41 -2.55 0-4.7-0.6-6.45-1.8 -2.08-1.45-3.11-3.54-3.11-6.26 0-1.8 0.67-3.74 2.02-5.81 1.63-2.42 3.53-3.64 5.7-3.64 1.3 0 2.36 0.4 3.19 1.2 0.82 0.8 1.24 1.83 1.24 3.07 0 1.23-0.54 2.54-1.61 3.94 -1.18 1.52-2.45 2.29-3.82 2.29 -0.22 0-0.38-0.05-0.47-0.17 -0.09-0.11-0.19-0.17-0.32-0.17 -0.32 0-1.14 0.23-2.44 0.68 0.45 1.37 1.39 2.41 2.81 3.11 1.13 0.55 2.39 0.83 3.79 0.83 0.15 0 0.33-0.03 0.52-0.09 0.2-0.06 0.38-0.09 0.53-0.09 0.45 0 0.91 0.16 1.37 0.49C57.7 30.47 57.93 30.8 57.93 31.13M53.36 20.25v-1.84c-0.05 0-0.16-0.04-0.34-0.11 -0.18-0.07-0.36-0.11-0.56-0.11 -0.68 0-1.5 0.52-2.47 1.57 -0.82 0.93-1.34 1.68-1.54 2.25 0.5 0.43 0.98 0.64 1.43 0.64 0.22 0 0.82-0.28 1.8-0.83C52.82 21.2 53.38 20.67 53.36 20.25M78.07 30.04c0 0.42-0.29 0.81-0.86 1.16 -0.47 0.28-0.85 0.41-1.13 0.41 -1.25-0.02-2.25-3.42-3-10.2 -0.52-4.88-0.78-8.41-0.75-10.62 0.1-4.67 0.94-6.99 2.51-6.94 1.07 0 1.61 1.35 1.61 4.05 0 0.8-0.06 2.16-0.19 4.09 -0.13 1.93-0.19 3.36-0.19 4.31 0 0.93 0.05 1.73 0.15 2.4C77.48 25.91 78.1 29.69 78.07 30.04M95.1 31.13c0 0.35-0.58 0.7-1.72 1.05 -0.92 0.27-1.56 0.41-1.91 0.41 -2.55 0-4.7-0.6-6.45-1.8 -2.08-1.45-3.11-3.54-3.11-6.26 0-1.8 0.68-3.74 2.03-5.81 1.63-2.42 3.53-3.64 5.7-3.64 1.3 0 2.36 0.4 3.19 1.2 0.83 0.8 1.24 1.83 1.24 3.07 0 1.23-0.54 2.54-1.61 3.94 -1.18 1.52-2.45 2.29-3.83 2.29 -0.22 0-0.38-0.05-0.47-0.17 -0.09-0.11-0.19-0.17-0.32-0.17 -0.32 0-1.14 0.23-2.44 0.68 0.45 1.37 1.39 2.41 2.81 3.11 1.13 0.55 2.39 0.83 3.79 0.83 0.15 0 0.33-0.03 0.53-0.09 0.2-0.06 0.38-0.09 0.53-0.09 0.45 0 0.91 0.16 1.37 0.49C94.87 30.47 95.1 30.8 95.1 31.13M90.52 20.25v-1.84c-0.05 0-0.16-0.04-0.34-0.11 -0.18-0.07-0.36-0.11-0.56-0.11 -0.67 0-1.5 0.52-2.48 1.57 -0.82 0.93-1.34 1.68-1.54 2.25 0.5 0.43 0.97 0.64 1.42 0.64 0.23 0 0.83-0.28 1.8-0.83C89.98 21.2 90.55 20.67 90.52 20.25M115.99 31.27c0 0.58-0.18 1.06-0.54 1.44 -0.36 0.39-0.82 0.58-1.37 0.58 -1.02 0-1.99-0.3-2.89-0.9 -0.9-0.6-1.57-1.34-2.03-2.21 -0.5-0.08-0.97 0.2-1.42 0.82 -0.52 0.73-0.86 1.13-1.01 1.2 -0.82 0.35-2.08 0.52-3.75 0.52 -1.4 0-2.65-0.79-3.75-2.36 -0.95-1.37-1.42-2.66-1.42-3.86 0-2.22 1.1-4.3 3.3-6.22 2.1-1.85 4.22-2.77 6.38-2.77 0.53 0 1.02 0.16 1.5 0.49 0.6 0.4 0.9 0.9 0.9 1.5 0 0.35-0.11 0.71-0.34 1.09 1.52 0.58 2.29 1.49 2.29 2.74 0 0.25-0.04 0.61-0.11 1.07 -0.08 0.46-0.11 0.78-0.11 0.96 0 0.22 0.03 0.41 0.08 0.56 0.32 0.85 1.15 1.94 2.48 3.26C115.37 30.4 115.99 31.1 115.99 31.27M108.11 21.49c-0.25 0-0.62-0.04-1.12-0.13 -0.5-0.09-0.85-0.13-1.04-0.13 -0.77 0-1.78 0.62-3.04 1.86 -1.26 1.24-1.88 2.31-1.88 3.21 0 0.52 0.22 1.11 0.67 1.76 0.57 0.83 1.27 1.24 2.09 1.24 1.69 0 2.82-0.94 3.4-2.81C107.5 24.8 107.81 23.13 108.11 21.49M136.16 25.65c-0.45 0.07-0.9 0.15-1.35 0.23 -0.72 0.1-1.2 0.35-1.42 0.75 -1.98 3.18-3.22 5.03-3.75 5.55 -1.1 1.08-2.76 1.61-4.99 1.61 -1.35 0-2.85-1.16-4.5-3.49 -1.52-2.15-2.29-3.85-2.29-5.1 0-2.62 0.76-4.76 2.29-6.41 1.53-1.65 3.54-2.48 6.04-2.48 0.2 0 0.7 0.1 1.5 0.28 0.8 0.19 1.31 0.28 1.54 0.28 0.6 0 1-1.2 1.2-3.6 0.32-3.68 0.57-5.9 0.75-6.67 0.52-2.4 1.5-3.6 2.93-3.6 0.47 0 0.86 0.31 1.16 0.94 0.23 0.5 0.34 0.97 0.34 1.43 0 0.82-0.32 2.19-0.95 4.09 -0.64 1.9-0.96 3.68-0.96 5.33 0 1.63 0.25 3.56 0.75 5.81C134.94 22.94 135.51 24.63 136.16 25.65M131.18 23.1c0-0.73-0.3-1.69-0.9-2.89 -2.77 0.3-4.72 0.66-5.85 1.09 -1.8 0.7-2.7 1.81-2.7 3.34 0 0.73 0.45 1.74 1.35 3.04 1.03 1.5 2.06 2.25 3.11 2.25 0.8 0 1.81-0.78 3.04-2.33C130.53 25.95 131.18 24.45 131.18 23.1M170.03 15.67c0.2 0.5 0.3 0.96 0.3 1.39 0 1.2-0.78 1.8-2.33 1.8 -0.25 0-1.36-0.17-3.34-0.5 -1.97-0.34-3.09-0.51-3.34-0.51 -0.87 0-1.4 0.06-1.57 0.19 -0.17 0.13-0.26 0.49-0.26 1.09 0 1.37 0.19 3.6 0.56 6.67 0.47 3.78 0.99 5.75 1.54 5.93 -0.22 0.22-0.34 0.58-0.34 1.05 -0.8 0.45-1.65 0.68-2.55 0.68 -0.9 0-1.52-1.26-1.87-3.79 -0.13-1.02-0.29-3.52-0.49-7.5 -0.15-2.97-0.4-4.74-0.75-5.29 -0.1-0.17-0.61-0.27-1.54-0.3 -0.67-0.05-1.56-0.06-2.66-0.04 -1.43 0.05-2.04 0.07-1.84 0.07 -0.5 0-0.89-0.22-1.16-0.68 -0.12-0.3-0.26-0.6-0.41-0.9 -0.07-0.15-0.11-0.3-0.11-0.45 0-0.88 1.34-1.53 4.01-1.96 1.52-0.15 3.05-0.31 4.58-0.49 0-0.73-0.02-1.6-0.07-2.63 -0.02-1.13-0.04-1.92-0.04-2.37 0-1.4 0.13-2.42 0.38-3.05 0.3-0.77 0.85-1.16 1.65-1.16 0.35 0 0.72 0.19 1.11 0.56 0.39 0.38 0.58 0.74 0.58 1.09v7.63c0.83 0.88 2.44 1.43 4.86 1.65C167.32 14.09 169.03 14.69 170.03 15.67M187.88 27.04c0 2.17-0.07 3.75-0.22 4.72 -0.4 2.48-1.24 3.71-2.51 3.71 -0.68 0-1.12-0.55-1.35-1.65 -0.15-0.72-0.22-2.01-0.22-3.86v-0.79c0-2.62-0.15-4.49-0.45-5.59 -0.5-1.77-1.48-2.66-2.92-2.66 -0.75 0-2.04 1.56-3.86 4.69 -1.03 1.8-2.04 3.61-3.04 5.44h-1.76c-0.9-0.9-1.35-3.98-1.35-9.23 0.53-11.53 1.53-17.29 3-17.29 1.3 0 1.95 1 1.95 3 0 0.2-0.08 0.85-0.23 1.95 -0.2 1.38-0.32 2.29-0.37 2.74 -0.1 0.82-0.15 1.35-0.15 1.57 0 2.8 0.07 4.83 0.22 6.08 1.65-1.58 2.76-2.55 3.32-2.93 0.56-0.37 1.37-0.61 2.42-0.71 2.3-0.23 4.21 1.21 5.74 4.31C187.28 22.92 187.88 25.09 187.88 27.04M204.61 31.13c0 0.35-0.57 0.7-1.72 1.05 -0.92 0.27-1.56 0.41-1.91 0.41 -2.55 0-4.7-0.6-6.45-1.8 -2.08-1.45-3.11-3.54-3.11-6.26 0-1.8 0.67-3.74 2.03-5.81 1.63-2.42 3.52-3.64 5.7-3.64 1.3 0 2.36 0.4 3.19 1.2 0.83 0.8 1.24 1.83 1.24 3.07 0 1.23-0.54 2.54-1.61 3.94 -1.18 1.52-2.45 2.29-3.83 2.29 -0.22 0-0.38-0.05-0.47-0.17 -0.09-0.11-0.19-0.17-0.32-0.17 -0.32 0-1.14 0.23-2.44 0.68 0.45 1.37 1.39 2.41 2.81 3.11 1.12 0.55 2.39 0.83 3.79 0.83 0.15 0 0.32-0.03 0.52-0.09 0.2-0.06 0.38-0.09 0.53-0.09 0.45 0 0.91 0.16 1.37 0.49C204.38 30.47 204.61 30.8 204.61 31.13M200.03 20.25v-1.84c-0.05 0-0.16-0.04-0.34-0.11 -0.17-0.07-0.36-0.11-0.56-0.11 -0.67 0-1.5 0.52-2.48 1.57 -0.82 0.93-1.34 1.68-1.54 2.25 0.5 0.43 0.97 0.64 1.42 0.64 0.23 0 0.83-0.28 1.8-0.83C199.49 21.2 200.06 20.67 200.03 20.25M229.1 26.47c-0.4 0.8-1.09 2.05-2.06 3.75 -1.1 1.75-2.02 2.63-2.77 2.63 -1.4 0-2.69-1.88-3.86-5.63 -0.9-2.87-1.35-4.84-1.35-5.89 0-0.77 0.15-1.45 0.45-2.02 0.37-0.73 0.91-1.09 1.61-1.09 0.6 0 1.04 0.44 1.31 1.33 0.27 0.89 0.48 2.44 0.6 4.67 0.33 1.25 0.77 2.3 1.35 3.15 0.52-0.7 1.26-2.24 2.21-4.61 1.05-2.6 1.89-3.9 2.51-3.9 0.35 0 0.8 0.13 1.35 0.4 0.55 0.26 0.84 0.54 0.86 0.84 0.08 1.58 0.51 3.19 1.3 4.86 0.79 1.67 1.77 3.06 2.94 4.18 1.15-1.07 1.94-2.52 2.36-4.35 0.28-1.65 0.55-3.3 0.83-4.95 -0.25-0.77-0.38-1.44-0.38-1.99 0-1.37 0.74-2.06 2.21-2.06 0.65 0 1.15 0.49 1.5 1.46 0.27 0.68 0.41 1.33 0.41 1.95 0 0.47-0.27 1.79-0.82 3.94 -0.67 2.75-1.45 5-2.33 6.75 -1.17 2.38-2.41 3.57-3.71 3.57 -1 0-2.22-0.94-3.68-2.82C231.87 30.54 230.92 29.15 229.1 26.47M263.64 31.27c0 0.58-0.18 1.06-0.54 1.44s-0.82 0.58-1.37 0.58c-1.03 0-1.99-0.3-2.89-0.9 -0.9-0.6-1.57-1.34-2.02-2.21 -0.5-0.08-0.98 0.2-1.42 0.82 -0.53 0.73-0.86 1.13-1.01 1.2 -0.83 0.35-2.08 0.52-3.75 0.52 -1.4 0-2.65-0.79-3.75-2.36 -0.95-1.37-1.43-2.66-1.43-3.86 0-2.22 1.1-4.3 3.3-6.22 2.1-1.85 4.22-2.77 6.38-2.77 0.53 0 1.02 0.16 1.5 0.49 0.6 0.4 0.9 0.9 0.9 1.5 0 0.35-0.11 0.71-0.34 1.09 1.53 0.58 2.29 1.49 2.29 2.74 0 0.25-0.04 0.61-0.11 1.07 -0.07 0.46-0.11 0.78-0.11 0.96 0 0.22 0.03 0.41 0.08 0.56 0.33 0.85 1.15 1.94 2.48 3.26C263.02 30.4 263.64 31.1 263.64 31.27M255.76 21.49c-0.25 0-0.62-0.04-1.12-0.13 -0.5-0.09-0.84-0.13-1.04-0.13 -0.77 0-1.79 0.62-3.04 1.86 -1.25 1.24-1.88 2.31-1.88 3.21 0 0.52 0.22 1.11 0.67 1.76 0.57 0.83 1.27 1.24 2.09 1.24 1.69 0 2.82-0.94 3.39-2.81C255.15 24.8 255.46 23.13 255.76 21.49M277.66 18.6c-0.9 1.8-1.94 4.06-3.11 6.79 -0.5 1.45-1 2.9-1.5 4.35 -0.57 1.7-0.94 3.2-1.11 4.48 -0.16 1.29-0.43 2.5-0.81 3.62 -0.65 1.83-1.41 2.67-2.29 2.55 -0.9-0.13-1.4-0.65-1.5-1.58 -0.02-0.13-0.04-0.29-0.04-0.48 0-0.1 0.09-0.58 0.26-1.43 0.68-3.25 1.01-5.33 1.01-6.23 0-0.35-0.04-0.58-0.11-0.71 -1.32-2.37-2.65-4.76-3.97-7.16 -1.7-3.25-2.46-5.73-2.29-7.42 0.92-0.87 1.6-1.31 2.03-1.31 0.28 0 0.62 0.21 1.03 0.62 0.41 0.41 0.63 0.75 0.66 1.03 0.57 4.02 2.16 7.6 4.76 10.72 0.55-1 1.15-2.3 1.8-3.9 0.5-1.35 1.01-2.69 1.54-4.01 1.22-2.87 2.31-4.31 3.26-4.31 0.13 0 0.26 0.02 0.41 0.07 0.55 0.2 0.95 1.1 1.2 2.7L277.66 18.6z"/></svg>